<?xml version="1.0" encoding="utf-8"?>
<!-- Generator: Adobe Illustrator 27.0.0, SVG Export Plug-In . SVG Version: 6.00 Build 0)  -->
<svg version="1.1" id="Capa_1" xmlns="http://www.w3.org/2000/svg" xmlns:xlink="http://www.w3.org/1999/xlink" x="0px" y="0px"
	 viewBox="0 0 31.9 32" style="enable-background:new 0 0 31.9 32;" xml:space="preserve">
<style type="text/css">
	.st0{fill:#D1E9FA;}
</style>
<path class="st0" d="M28.4,32H3.6c-2,0-3.6-1.6-3.6-3.6V3.6C0,1.6,1.6,0,3.6,0h24.7c2,0,3.6,1.6,3.6,3.6v24.7
	C32,30.4,30.4,32,28.4,32z"/>
<g>
	<g>
		<g>
			<path d="M23.6,20.9c-0.8,1-1.7,2-2.7,2.7l7.3,7.3l2.7-2.7L23.6,20.9z"/>
		</g>
	</g>
	<g>
		<g>
			<path d="M12.7,1.1C6.3,1.1,1,6.3,1,12.8s5.2,11.7,11.7,11.7s11.7-5.2,11.7-11.7S19.1,1.1,12.7,1.1z M12.7,21.5
				c-4.8,0-8.8-3.9-8.8-8.8S7.9,4,12.7,4s8.8,3.9,8.8,8.8S17.5,21.5,12.7,21.5z"/>
		</g>
	</g>
	<g>
		<g>
			<path d="M12.7,6C8.9,6,5.9,9,5.9,12.8s3.1,6.8,6.8,6.8s6.8-3.1,6.8-6.8S16.5,6,12.7,6z"/>
		</g>
	</g>
</g>
</svg>
